<svg width="119" height="25" viewBox="0 0 119 25" fill="none" xmlns="http://www.w3.org/2000/svg">
<line x1="5.49219" y1="12.7888" x2="109.044" y2="12.7888" stroke="#CCCCCC" stroke-dasharray="3 3"/>
<path d="M58.0725 22.7073H56.7071C56.5699 22.7072 56.4349 22.6758 56.3144 22.6157C56.1939 22.5557 56.0919 22.469 56.0175 22.3637C55.9432 22.2583 55.899 22.1376 55.8889 22.0125C55.8787 21.8875 55.9031 21.7621 55.9597 21.6479L59.2661 14.9799L54.3014 14.8792L52.4907 16.884C52.1455 17.2806 51.8701 17.4573 51.1673 17.4573H50.2482C50.1026 17.4616 49.9581 17.4337 49.8268 17.3761C49.6956 17.3185 49.5815 17.2328 49.4941 17.1263C49.3721 16.9759 49.252 16.7209 49.369 16.3571L50.3856 13.029C50.3933 13.0042 50.4025 12.9793 50.4128 12.9549C50.4133 12.9526 50.4133 12.9502 50.4128 12.9479C50.4022 12.9235 50.3931 12.8987 50.3856 12.8734L49.368 9.52415C49.2577 9.16743 49.3782 8.91806 49.4993 8.77134C49.5806 8.67277 49.686 8.593 49.8072 8.53846C49.9283 8.48391 50.0618 8.45611 50.1969 8.45728H51.1673C51.6921 8.45728 52.2014 8.67243 52.501 9.01978L54.2742 10.9909L59.2661 10.9234L55.9607 4.26712C55.9041 4.15296 55.8796 4.02763 55.8896 3.9026C55.8996 3.77757 55.9437 3.65683 56.018 3.55141C56.0922 3.44599 56.1942 3.35926 56.3145 3.29914C56.4349 3.23902 56.5699 3.20744 56.7071 3.20728H58.0874C58.2799 3.21081 58.4692 3.25395 58.641 3.33347C58.8128 3.413 58.9628 3.52688 59.0799 3.66665L65.4942 10.7917L68.4574 10.7204C68.6744 10.7096 69.2755 10.7059 69.4145 10.7059C72.249 10.7073 73.9417 11.5482 73.9417 12.9573C73.9417 13.4007 73.7478 14.2229 72.4506 14.746C71.6848 15.0554 70.663 15.212 69.4135 15.212C69.2761 15.212 68.6764 15.2082 68.4564 15.1974L65.4937 15.1252L59.0635 22.2502C58.9463 22.3894 58.7964 22.5027 58.6249 22.5818C58.4534 22.6609 58.2646 22.7038 58.0725 22.7073V22.7073Z" fill="#1262AE"/>
<circle cx="5.75098" cy="13.2888" r="4" fill="white" stroke="#1262AE" stroke-width="2"/>
<circle cx="113.102" cy="12.8718" r="4" fill="white" stroke="#1262AE" stroke-width="2"/>
</svg>
