<svg width="14" height="14" viewBox="0 0 14 14" fill="none" xmlns="http://www.w3.org/2000/svg">
<path d="M11.3719 3.0767H9.33813V2.30192C9.33813 2.24866 9.29455 2.20508 9.24128 2.20508H8.56335C8.51009 2.20508 8.46651 2.24866 8.46651 2.30192V3.0767H5.36742V2.30192C5.36742 2.24866 5.32384 2.20508 5.27058 2.20508H4.59265C4.53939 2.20508 4.49581 2.24866 4.49581 2.30192V3.0767H2.46203C2.24776 3.0767 2.07465 3.24981 2.07465 3.46408V11.5023C2.07465 11.7166 2.24776 11.8897 2.46203 11.8897H11.3719C11.5862 11.8897 11.7593 11.7166 11.7593 11.5023V3.46408C11.7593 3.24981 11.5862 3.0767 11.3719 3.0767ZM10.8877 11.0181H2.94626V6.4179H10.8877V11.0181ZM2.94626 5.5947V3.94831H4.49581V4.52939C4.49581 4.58266 4.53939 4.62624 4.59265 4.62624H5.27058C5.32384 4.62624 5.36742 4.58266 5.36742 4.52939V3.94831H8.46651V4.52939C8.46651 4.58266 8.51009 4.62624 8.56335 4.62624H9.24128C9.29455 4.62624 9.33813 4.58266 9.33813 4.52939V3.94831H10.8877V5.5947H2.94626Z" fill="#BFBFBF"/>
</svg>
