<svg width="13" height="14" viewBox="0 0 13 14" fill="none" xmlns="http://www.w3.org/2000/svg">
<path d="M11.1822 3.05765H9.14843V2.28288C9.14843 2.22962 9.10485 2.18604 9.05158 2.18604H8.37366C8.32039 2.18604 8.27681 2.22962 8.27681 2.28288V3.05765H5.17773V2.28288C5.17773 2.22962 5.13415 2.18604 5.08088 2.18604H4.40296C4.34969 2.18604 4.30611 2.22962 4.30611 2.28288V3.05765H2.27233C2.05806 3.05765 1.88495 3.23077 1.88495 3.44504V11.4833C1.88495 11.6976 2.05806 11.8707 2.27233 11.8707H11.1822C11.3965 11.8707 11.5696 11.6976 11.5696 11.4833V3.44504C11.5696 3.23077 11.3965 3.05765 11.1822 3.05765ZM10.698 10.9991H2.75657V6.39885H10.698V10.9991ZM2.75657 5.57566V3.92927H4.30611V4.51035C4.30611 4.56361 4.34969 4.6072 4.40296 4.6072H5.08088C5.13415 4.6072 5.17773 4.56361 5.17773 4.51035V3.92927H8.27681V4.51035C8.27681 4.56361 8.32039 4.6072 8.37366 4.6072H9.05158C9.10485 4.6072 9.14843 4.56361 9.14843 4.51035V3.92927H10.698V5.57566H2.75657Z" fill="#BFBFBF"/>
</svg>
