<svg width="13" height="14" viewBox="0 0 13 14" fill="none" xmlns="http://www.w3.org/2000/svg">
<path d="M11.1821 3.05765H9.14837V2.28288C9.14837 2.22962 9.10479 2.18604 9.05152 2.18604H8.3736C8.32033 2.18604 8.27675 2.22962 8.27675 2.28288V3.05765H5.17767V2.28288C5.17767 2.22962 5.13408 2.18604 5.08082 2.18604H4.40289C4.34963 2.18604 4.30605 2.22962 4.30605 2.28288V3.05765H2.27227C2.058 3.05765 1.88489 3.23077 1.88489 3.44504V11.4833C1.88489 11.6976 2.058 11.8707 2.27227 11.8707H11.1821C11.3964 11.8707 11.5695 11.6976 11.5695 11.4833V3.44504C11.5695 3.23077 11.3964 3.05765 11.1821 3.05765ZM10.6979 10.9991H2.75651V6.39885H10.6979V10.9991ZM2.75651 5.57566V3.92927H4.30605V4.51035C4.30605 4.56361 4.34963 4.6072 4.40289 4.6072H5.08082C5.13408 4.6072 5.17767 4.56361 5.17767 4.51035V3.92927H8.27675V4.51035C8.27675 4.56361 8.32033 4.6072 8.3736 4.6072H9.05152C9.10479 4.6072 9.14837 4.56361 9.14837 4.51035V3.92927H10.6979V5.57566H2.75651Z" fill="#BFBFBF"/>
</svg>
