<svg width="12" height="13" viewBox="0 0 12 13" fill="none" xmlns="http://www.w3.org/2000/svg">
<path d="M8.79841 6.21721L3.81147 2.32212C3.79844 2.31186 3.78278 2.30548 3.76629 2.30372C3.74979 2.30196 3.73314 2.30489 3.71824 2.31217C3.70334 2.31944 3.69079 2.33078 3.68204 2.34487C3.67329 2.35895 3.66868 2.37522 3.66876 2.39181V3.24694C3.66876 3.30114 3.69421 3.35314 3.73624 3.38632L7.71872 6.49598L3.73624 9.60564C3.6931 9.63882 3.66876 9.69082 3.66876 9.74502V10.6002C3.66876 10.6743 3.75394 10.7152 3.81147 10.6698L8.79841 6.77475C8.8408 6.74169 8.87509 6.6994 8.89867 6.65109C8.92225 6.60279 8.93451 6.54974 8.93451 6.49598C8.93451 6.44222 8.92225 6.38918 8.89867 6.34087C8.87509 6.29256 8.8408 6.25027 8.79841 6.21721Z" fill="#262626"/>
</svg>
