<svg width="14" height="14" viewBox="0 0 14 14" fill="none" xmlns="http://www.w3.org/2000/svg">
<path d="M11.3719 3.09574H9.33813V2.32097C9.33813 2.2677 9.29455 2.22412 9.24128 2.22412H8.56335C8.51009 2.22412 8.46651 2.2677 8.46651 2.32097V3.09574H5.36742V2.32097C5.36742 2.2677 5.32384 2.22412 5.27058 2.22412H4.59265C4.53939 2.22412 4.49581 2.2677 4.49581 2.32097V3.09574H2.46203C2.24776 3.09574 2.07465 3.26885 2.07465 3.48312V11.5214C2.07465 11.7356 2.24776 11.9088 2.46203 11.9088H11.3719C11.5862 11.9088 11.7593 11.7356 11.7593 11.5214V3.48312C11.7593 3.26885 11.5862 3.09574 11.3719 3.09574ZM10.8877 11.0371H2.94626V6.43694H10.8877V11.0371ZM2.94626 5.61375V3.96736H4.49581V4.54843C4.49581 4.6017 4.53939 4.64528 4.59265 4.64528H5.27058C5.32384 4.64528 5.36742 4.6017 5.36742 4.54843V3.96736H8.46651V4.54843C8.46651 4.6017 8.51009 4.64528 8.56335 4.64528H9.24128C9.29455 4.64528 9.33813 4.6017 9.33813 4.54843V3.96736H10.8877V5.61375H2.94626Z" fill="#BFBFBF"/>
</svg>
