<svg width="13" height="14" viewBox="0 0 13 14" fill="none" xmlns="http://www.w3.org/2000/svg">
<path d="M11.1822 3.03861H9.14843V2.26384C9.14843 2.21057 9.10485 2.16699 9.05158 2.16699H8.37366C8.32039 2.16699 8.27681 2.21057 8.27681 2.26384V3.03861H5.17773V2.26384C5.17773 2.21057 5.13415 2.16699 5.08088 2.16699H4.40296C4.34969 2.16699 4.30611 2.21057 4.30611 2.26384V3.03861H2.27233C2.05806 3.03861 1.88495 3.21172 1.88495 3.426V11.4642C1.88495 11.6785 2.05806 11.8516 2.27233 11.8516H11.1822C11.3965 11.8516 11.5696 11.6785 11.5696 11.4642V3.426C11.5696 3.21172 11.3965 3.03861 11.1822 3.03861ZM10.698 10.98H2.75657V6.37981H10.698V10.98ZM2.75657 5.55662V3.91023H4.30611V4.49131C4.30611 4.54457 4.34969 4.58815 4.40296 4.58815H5.08088C5.13415 4.58815 5.17773 4.54457 5.17773 4.49131V3.91023H8.27681V4.49131C8.27681 4.54457 8.32039 4.58815 8.37366 4.58815H9.05158C9.10485 4.58815 9.14843 4.54457 9.14843 4.49131V3.91023H10.698V5.55662H2.75657Z" fill="#BFBFBF"/>
</svg>
