<svg width="30" height="30" viewBox="0 0 30 30" fill="none" xmlns="http://www.w3.org/2000/svg">
<path fill-rule="evenodd" clip-rule="evenodd" d="M15.6629 6.83709C15.4871 6.66127 15.2486 6.5625 15 6.5625C14.7514 6.5625 14.5129 6.66127 14.3371 6.83709C14.1613 7.0129 14.0625 7.25136 14.0625 7.5V14.0625H7.5C7.25136 14.0625 7.0129 14.1613 6.83709 14.3371C6.66127 14.5129 6.5625 14.7514 6.5625 15C6.5625 15.2486 6.66127 15.4871 6.83709 15.6629C7.0129 15.8387 7.25136 15.9375 7.5 15.9375H14.0625V22.5C14.0625 22.7486 14.1613 22.9871 14.3371 23.1629C14.5129 23.3387 14.7514 23.4375 15 23.4375C15.2486 23.4375 15.4871 23.3387 15.6629 23.1629C15.8387 22.9871 15.9375 22.7486 15.9375 22.5V15.9375H22.5C22.7486 15.9375 22.9871 15.8387 23.1629 15.6629C23.3387 15.4871 23.4375 15.2486 23.4375 15C23.4375 14.7514 23.3387 14.5129 23.1629 14.3371C22.9871 14.1613 22.7486 14.0625 22.5 14.0625H15.9375V7.5C15.9375 7.25136 15.8387 7.0129 15.6629 6.83709Z" fill="white"/>
</svg>
