<svg width="38" height="40" viewBox="0 0 38 40" fill="none" xmlns="http://www.w3.org/2000/svg">
<path fill-rule="evenodd" clip-rule="evenodd" d="M0 10L3.4 11.9633C4.09796 10.751 4.9551 9.64082 5.95918 8.63674C7.43673 7.15919 9.1551 6 11.0694 5.19184C13.049 4.3551 15.151 3.93061 17.3224 3.93061C19.4939 3.93061 21.6 4.3551 23.5755 5.19184C25.4898 6 27.2082 7.15919 28.6857 8.63674C30.1633 10.1143 31.3225 11.8327 32.1306 13.7469C32.9714 15.7225 33.3959 17.8286 33.3959 20C33.3959 22.1714 32.9714 24.2776 32.1347 26.2531C31.3265 28.1673 30.1673 29.8857 28.6898 31.3633C27.2122 32.8408 25.4939 34 23.5796 34.8082C21.6 35.6449 19.498 36.0694 17.3265 36.0694C15.9265 36.0694 14.5429 35.8898 13.2041 35.5388C11.9102 35.1959 10.6571 34.6898 9.48571 34.0327C7.17551 32.7388 5.19592 30.8735 3.77143 28.6367C3.6449 28.4367 3.52245 28.2367 3.40408 28.0327L0 30C0.146939 30.2571 0.302041 30.5061 0.457143 30.7551C4.01225 36.3143 10.2367 40 17.3224 40C28.3673 40 37.3225 31.0449 37.3225 20C37.3225 8.9551 28.3673 0 17.3224 0C9.92245 0 3.45714 4.02041 0 10Z" fill="#3F51B5"/>
</svg>
